<?xml version="1.0"?>
<svg xmlns="http://www.w3.org/2000/svg" xmlns:xlink="http://www.w3.org/1999/xlink" xmlns:svgjs="http://svgjs.com/svgjs" version="1.1" width="512" height="512" x="0" y="0" viewBox="0 0 62.345 62" style="enable-background:new 0 0 512 512" xml:space="preserve" class=""><g><g xmlns="http://www.w3.org/2000/svg"><path d="m36 51c0 3.86 3.14 7 7 7s7-3.14 7-7-3.14-7-7-7-7 3.14-7 7zm12 0c0 2.757-2.243 5-5 5s-5-2.243-5-5 2.243-5 5-5 5 2.243 5 5z" fill="#ffffff" data-original="#000000" style="" class=""/><path d="m60 48.394v-36.394c0-1.103-.897-2-2-2h-35v2h35v34.248c-3.918-3.825-9.151-6.057-14.639-6.23-.121-.004-.239-.018-.361-.018-.038 0-.074.005-.112.006-.072-.001-.143-.006-.214-.006-3.8 0-7.445.974-10.674 2.779v-.779c0-1.103-.897-2-2-2h-4c-1.103 0-2 .897-2 2v4c0 .974.701 1.785 1.624 1.962l-2.038 2.038h-21.586v-38h11v-2h-11c-1.103 0-2 .897-2 2v38c0 1.103.897 2 2 2h21.586l3.574 3.574c4.144 4.144 9.653 6.426 15.514 6.426.071 0 .142-.005.214-.006.038.001.074.006.112.006.122 0 .24-.014.361-.018 5.959-.188 11.621-2.8 15.621-7.245l3.363-3.737zm-8 2.606c0 4.584-3.448 8.372-7.886 8.924-.426.031-.851.064-1.281.068-4.885-.091-8.833-4.086-8.833-8.992s3.948-8.901 8.833-8.992c.429.003.855.037 1.281.068 4.438.552 7.886 4.34 7.886 8.924zm-26-9h4v2.051c-.828.59-1.62 1.24-2.37 1.949h-1.63zm-.586 9 3.16-3.16c1.85-1.85 4.002-3.286 6.342-4.274-1.804 1.96-2.916 4.566-2.916 7.434s1.112 5.474 2.916 7.434c-2.34-.988-4.492-2.424-6.342-4.274zm32.082 2.399c-1.686 1.873-3.707 3.366-5.918 4.471 1.511-1.885 2.422-4.272 2.422-6.87s-.911-4.985-2.423-6.87c2.211 1.105 4.233 2.598 5.918 4.471l2.16 2.399z" fill="#ffffff" data-original="#000000" style="" class=""/><path d="m56 16c0-1.103-.897-2-2-2h-18c-1.103 0-2 .897-2 2v4c0 1.103.897 2 2 2h18c1.103 0 2-.897 2-2zm-20 4v-4h18l.001 4z" fill="#ffffff" data-original="#000000" style="" class=""/><path d="m32 36v-18c0-1.103-.897-2-2-2h-24c-1.103 0-2 .897-2 2v18c0 1.103.897 2 2 2h24c1.103 0 2-.897 2-2zm-26-18h24l.001 18h-24.001z" fill="#ffffff" data-original="#000000" style="" class=""/><path d="m6 40c-1.103 0-2 .897-2 2v4c0 1.103.897 2 2 2h4c1.103 0 2-.897 2-2v-4c0-1.103-.897-2-2-2zm0 6v-4h4l.001 4z" fill="#ffffff" data-original="#000000" style="" class=""/><path d="m16 40c-1.103 0-2 .897-2 2v4c0 1.103.897 2 2 2h4c1.103 0 2-.897 2-2v-4c0-1.103-.897-2-2-2zm0 6v-4h4l.001 4z" fill="#ffffff" data-original="#000000" style="" class=""/><path d="m34 28c0 1.103.897 2 2 2h2c1.103 0 2-.897 2-2v-2c0-1.103-.897-2-2-2h-2c-1.103 0-2 .897-2 2zm2-2h2l.001 2h-2.001z" fill="#ffffff" data-original="#000000" style="" class=""/><path d="m48 26c0-1.103-.897-2-2-2h-2c-1.103 0-2 .897-2 2v2c0 1.103.897 2 2 2h2c1.103 0 2-.897 2-2zm-4 2v-2h2l.001 2z" fill="#ffffff" data-original="#000000" style="" class=""/><path d="m56 26c0-1.103-.897-2-2-2h-2c-1.103 0-2 .897-2 2v2c0 1.103.897 2 2 2h2c1.103 0 2-.897 2-2zm-4 2v-2h2l.001 2z" fill="#ffffff" data-original="#000000" style="" class=""/><path d="m34 36c0 1.103.897 2 2 2h2c1.103 0 2-.897 2-2v-2c0-1.103-.897-2-2-2h-2c-1.103 0-2 .897-2 2zm2-2h2l.001 2h-2.001z" fill="#ffffff" data-original="#000000" style="" class=""/><path d="m46 32h-2c-1.103 0-2 .897-2 2v2c0 1.103.897 2 2 2h2c1.103 0 2-.897 2-2v-2c0-1.103-.897-2-2-2zm-2 4v-2h2l.001 2z" fill="#ffffff" data-original="#000000" style="" class=""/><path d="m54 32h-2c-1.103 0-2 .897-2 2v2c0 1.103.897 2 2 2h2c1.103 0 2-.897 2-2v-2c0-1.103-.897-2-2-2zm-2 4v-2h2l.001 2z" fill="#ffffff" data-original="#000000" style="" class=""/><path d="m21 11c0-1.654-1.346-3-3-3s-3 1.346-3 3 1.346 3 3 3 3-1.346 3-3zm-4 0c0-.551.449-1 1-1s1 .449 1 1-.449 1-1 1-1-.449-1-1z" fill="#ffffff" data-original="#000000" style="" class=""/><path d="m8.514 24.126.972 1.748 1.514-.841v6.967c0 1.103.897 2 2 2h10c1.103 0 2-.897 2-2v-6.967l1.514.841.972-1.748-9.486-5.27zm10.486 7.874h-2v-4h2zm4 0h-2v-4c0-1.103-.897-2-2-2h-2c-1.103 0-2 .897-2 2v4h-2v-8.078l5-2.778 5 2.778z" fill="#ffffff" data-original="#000000" style="" class=""/><path d="m18 4c-1.557 0-3.021.606-4.121 1.707l-.586.586 1.414 1.414.586-.586c1.446-1.446 3.968-1.446 5.414 0l.586.586 1.414-1.414-.586-.586c-1.1-1.101-2.564-1.707-4.121-1.707z" fill="#ffffff" data-original="#000000" style="" class=""/><path d="m11.878 4.536c1.636-1.636 3.81-2.536 6.122-2.536s4.486.9 6.122 2.536l.171.171 1.414-1.414-.171-.171c-2.013-2.014-4.689-3.122-7.536-3.122s-5.523 1.108-7.536 3.122l-.171.171 1.414 1.414z" fill="#ffffff" data-original="#000000" style="" class=""/></g></g></svg>
