<?xml version="1.0"?>
<svg xmlns="http://www.w3.org/2000/svg" xmlns:xlink="http://www.w3.org/1999/xlink" xmlns:svgjs="http://svgjs.com/svgjs" version="1.1" width="512" height="512" x="0" y="0" viewBox="0 0 512.003 512.003" style="enable-background:new 0 0 512 512" xml:space="preserve" class=""><g>
<g xmlns="http://www.w3.org/2000/svg">
	<g>
		<g>
			<path d="M450.914,202.243c-16.463,0-29.856,13.394-29.856,29.857c0,12.956,8.298,24.007,19.856,28.128v80.531     c0,41.019-33.372,74.391-74.391,74.391h-9.305v-23.074c0-8.455-4.202-16.302-11.241-20.99c-7.02-4.675-15.853-5.526-23.628-2.279     c-0.754,0.315-1.513,0.61-2.27,0.915v-27.949c54.037-27.282,91.185-83.316,91.185-147.87     c0-91.277-74.259-165.536-165.536-165.536S80.192,102.626,80.192,193.903c0,64.554,37.148,120.589,91.186,147.87v27.949     c-0.756-0.305-1.516-0.6-2.269-0.915c-7.776-3.249-16.608-2.396-23.629,2.279c-7.039,4.688-11.241,12.535-11.241,20.99v92.093     c0,15.348,12.486,27.834,27.834,27.834h167.311c15.348,0,27.834-12.486,27.834-27.834V435.15h9.305     c52.047,0,94.391-42.343,94.391-94.391v-80.531c11.559-4.122,19.857-15.172,19.857-28.128     C480.771,215.637,467.377,202.243,450.914,202.243z M100.192,193.903c0-80.249,65.287-145.536,145.536-145.536     s145.536,65.287,145.536,145.536c0,53.102-28.593,99.645-71.186,125.063c-6.37,3.801-13.052,7.13-20,9.937     c-16.801,6.789-35.145,10.536-54.35,10.536s-37.549-3.748-54.35-10.536c-6.948-2.807-13.63-6.136-20-9.937     C128.785,293.547,100.192,247.005,100.192,193.903z M300.078,350.263v26.319c-17.578,4.99-35.775,7.519-54.35,7.519     s-36.772-2.529-54.35-7.519v-26.319c17.033,5.937,35.319,9.176,54.35,9.176S283.045,356.201,300.078,350.263z M337.217,425.149     v59.019c0,4.32-3.514,7.834-7.834,7.834h-167.31c-4.32,0-7.834-3.514-7.834-7.834v-92.093c0-2.521,1.627-3.877,2.327-4.343     c0.58-0.386,1.574-0.886,2.839-0.886c0.608,0,1.278,0.116,1.995,0.415c3.302,1.379,6.629,2.673,9.979,3.884     c6.58,2.379,13.252,4.427,20,6.153c17.648,4.516,35.83,6.802,54.35,6.802s36.702-2.286,54.35-6.802     c6.748-1.727,13.42-3.774,20-6.153c3.349-1.211,6.676-2.505,9.978-3.884c2.206-0.921,3.975-0.101,4.833,0.471     c0.7,0.466,2.327,1.822,2.327,4.343V425.149z M450.913,241.955c-5.435,0-9.856-4.421-9.856-9.856s4.421-9.857,9.856-9.857     s9.857,4.422,9.857,9.857S456.348,241.955,450.913,241.955z" fill="#ffffff" data-original="#000000" style="" class=""/>
			<path d="M160.569,18.99c4.964-2.421,7.025-8.409,4.604-13.372c-2.422-4.964-8.407-7.024-13.373-4.604     c-35.604,17.369-65.705,44.238-87.047,77.703c-21.93,34.387-33.521,74.218-33.521,115.186c0,5.523,4.477,10,10,10s10-4.477,10-10     C51.232,118.912,93.128,51.889,160.569,18.99z" fill="#ffffff" data-original="#000000" style="" class=""/>
			<path d="M276.648,95.967c43.61,15.052,72.911,56.183,72.911,102.349c0,5.523,4.477,10,10,10s10-4.477,10-10     c0-54.692-34.716-103.42-86.386-121.254c-5.221-1.802-10.914,0.97-12.715,6.19C268.656,88.472,271.427,94.165,276.648,95.967z" fill="#ffffff" data-original="#000000" style="" class=""/>
			<path d="M245.728,240.167c25.51,0,46.265-20.754,46.265-46.264s-20.754-46.265-46.265-46.265     c-25.511,0-46.265,20.754-46.265,46.265S220.218,240.167,245.728,240.167z M245.728,167.638     c14.482,0,26.265,11.782,26.265,26.265c0,14.482-11.782,26.264-26.265,26.264c-14.482,0-26.265-11.782-26.265-26.264     C219.463,179.42,231.246,167.638,245.728,167.638z" fill="#ffffff" data-original="#000000" style="" class=""/>
			<path d="M190.061,469.492c-0.25-0.6-0.56-1.18-0.92-1.72c-0.37-0.55-0.78-1.06-1.24-1.52c-2.33-2.33-5.78-3.39-9.03-2.74     c-0.64,0.13-1.27,0.32-1.87,0.57c-0.6,0.25-1.18,0.56-1.73,0.92c-0.54,0.37-1.06,0.79-1.52,1.25c-0.46,0.46-0.88,0.97-1.24,1.52     c-0.36,0.54-0.67,1.12-0.92,1.72c-0.25,0.61-0.44,1.24-0.57,1.87c-0.13,0.65-0.19,1.31-0.19,1.96c0,0.65,0.06,1.31,0.19,1.95     s0.32,1.27,0.57,1.87c0.25,0.61,0.56,1.19,0.92,1.73c0.36,0.55,0.78,1.06,1.24,1.52c0.46,0.46,0.98,0.88,1.52,1.24     c0.55,0.36,1.13,0.67,1.73,0.92c0.6,0.25,1.23,0.44,1.87,0.57c0.65,0.13,1.3,0.2,1.96,0.2c2.63,0,5.21-1.07,7.07-2.93     c0.46-0.46,0.87-0.97,1.24-1.52c0.36-0.54,0.67-1.12,0.92-1.73c0.25-0.6,0.44-1.23,0.57-1.87s0.19-1.3,0.19-1.95     s-0.06-1.31-0.19-1.96C190.501,470.732,190.311,470.102,190.061,469.492z" fill="#ffffff" data-original="#000000" style="" class=""/>
			<path d="M319.861,469.492c-0.25-0.6-0.56-1.18-0.92-1.72c-0.36-0.55-0.78-1.06-1.24-1.52c-0.46-0.46-0.97-0.88-1.52-1.25     c-0.54-0.36-1.12-0.67-1.73-0.92c-0.6-0.24-1.23-0.44-1.87-0.56c-1.29-0.26-2.61-0.26-3.91,0c-0.63,0.12-1.26,0.32-1.87,0.56     c-0.6,0.25-1.18,0.56-1.72,0.92c-0.55,0.37-1.06,0.79-1.52,1.25c-0.46,0.46-0.88,0.97-1.24,1.52c-0.36,0.54-0.67,1.12-0.92,1.72     c-0.25,0.61-0.45,1.24-0.57,1.87c-0.13,0.65-0.2,1.31-0.2,1.96c0,0.65,0.07,1.31,0.2,1.95c0.12,0.64,0.32,1.27,0.57,1.87     c0.25,0.61,0.56,1.19,0.92,1.73c0.36,0.55,0.78,1.06,1.24,1.52c0.46,0.46,0.97,0.88,1.52,1.24c0.54,0.36,1.12,0.67,1.72,0.92     c0.61,0.25,1.24,0.44,1.87,0.57c0.65,0.13,1.31,0.2,1.96,0.2c0.65,0,1.31-0.07,1.95-0.2s1.27-0.32,1.87-0.57     c0.61-0.25,1.19-0.56,1.73-0.92c0.55-0.36,1.06-0.78,1.52-1.24c0.46-0.46,0.88-0.97,1.24-1.52c0.36-0.54,0.67-1.12,0.92-1.73     c0.25-0.6,0.44-1.23,0.57-1.87s0.2-1.3,0.2-1.95s-0.07-1.31-0.2-1.96C320.301,470.732,320.111,470.102,319.861,469.492z" fill="#ffffff" data-original="#000000" style="" class=""/>
			<path d="M231.203,435.149h29.05c5.299,0,9.623-4.124,9.966-9.336c0.015-0.22,0.034-0.44,0.034-0.664c0-5.523-4.477-10-10-10     h-29.05c-5.523,0-10,4.477-10,10c0,0.224,0.019,0.444,0.034,0.664C221.58,431.025,225.904,435.149,231.203,435.149z" fill="#ffffff" data-original="#000000" style="" class=""/>
			<path d="M272.204,449.715h-52.951c-5.523,0-10,4.477-10,10s4.477,10,10,10h52.951c5.523,0,10-4.477,10-10     S277.727,449.715,272.204,449.715z" fill="#ffffff" data-original="#000000" style="" class=""/>
			<path d="M235.761,88.382c0.55,0.36,1.13,0.67,1.73,0.92c0.6,0.25,1.23,0.45,1.87,0.57c0.65,0.13,1.3,0.2,1.95,0.2     c0.66,0,1.31-0.07,1.96-0.2c0.64-0.12,1.27-0.32,1.87-0.57c0.6-0.25,1.18-0.56,1.73-0.92c0.54-0.36,1.06-0.78,1.52-1.24     c1.86-1.86,2.93-4.44,2.93-7.07c0-0.65-0.07-1.31-0.2-1.95s-0.32-1.27-0.57-1.87c-0.25-0.61-0.56-1.19-0.92-1.73     c-0.36-0.55-0.78-1.06-1.24-1.52c-0.46-0.46-0.98-0.88-1.52-1.24c-0.55-0.36-1.13-0.67-1.73-0.92c-0.6-0.25-1.23-0.45-1.87-0.57     c-1.29-0.26-2.62-0.26-3.91,0c-0.64,0.12-1.27,0.32-1.87,0.57c-0.6,0.25-1.18,0.56-1.73,0.92c-0.54,0.36-1.06,0.78-1.52,1.24     c-0.46,0.46-0.88,0.97-1.24,1.52c-0.36,0.54-0.67,1.12-0.92,1.73c-0.25,0.6-0.44,1.23-0.57,1.87s-0.2,1.3-0.2,1.95     c0,2.63,1.07,5.21,2.93,7.07C234.701,87.602,235.221,88.022,235.761,88.382z" fill="#ffffff" data-original="#000000" style="" class=""/>
		</g>
	</g>
</g>
<g xmlns="http://www.w3.org/2000/svg">
</g>
<g xmlns="http://www.w3.org/2000/svg">
</g>
<g xmlns="http://www.w3.org/2000/svg">
</g>
<g xmlns="http://www.w3.org/2000/svg">
</g>
<g xmlns="http://www.w3.org/2000/svg">
</g>
<g xmlns="http://www.w3.org/2000/svg">
</g>
<g xmlns="http://www.w3.org/2000/svg">
</g>
<g xmlns="http://www.w3.org/2000/svg">
</g>
<g xmlns="http://www.w3.org/2000/svg">
</g>
<g xmlns="http://www.w3.org/2000/svg">
</g>
<g xmlns="http://www.w3.org/2000/svg">
</g>
<g xmlns="http://www.w3.org/2000/svg">
</g>
<g xmlns="http://www.w3.org/2000/svg">
</g>
<g xmlns="http://www.w3.org/2000/svg">
</g>
<g xmlns="http://www.w3.org/2000/svg">
</g>
</g></svg>
