<?xml version="1.0"?>
<svg xmlns="http://www.w3.org/2000/svg" xmlns:xlink="http://www.w3.org/1999/xlink" xmlns:svgjs="http://svgjs.com/svgjs" version="1.1" width="512" height="512" x="0" y="0" viewBox="0 0 512 512" style="enable-background:new 0 0 512 512" xml:space="preserve" class=""><g><g xmlns="http://www.w3.org/2000/svg"><path d="m473.6 342.4h-6.4v-124.8c0-26.4-21.4-47.8-47.8-47.8h-76.3c-19.9-34.5-57.2-57.8-99.9-57.8-42.6 0-79.9 23.2-99.8 57.6h-54v-12.8c0-3.5-2.9-6.4-6.4-6.4h-44.6c-3.5 0-6.4 2.9-6.4 6.4v140.8c0 3.5 2.9 6.4 6.4 6.4h44.7c3.5 0 6.4-2.9 6.4-6.4v-12.8h54c19.9 34.4 57.1 57.6 99.8 57.6 42.6 0 79.8-23.2 99.7-57.6h9.1v57.6h-12.8c-3.5 0-6.4 2.9-6.4 6.4v44.8c0 3.5 2.9 6.4 6.4 6.4h134.4c3.5 0 6.4-2.9 6.4-6.4v-44.8c-.1-3.5-3-6.4-6.5-6.4zm-396.9-51.2h-31.9v-128h31.9v12.8 102.4zm12.8-19.2v-89.6h47.5c-5.8 13.8-9 28.9-9 44.8s3.2 31 9 44.8zm153.7 57.6c-56.6 0-102.4-45.8-102.4-102.4s45.8-102.4 102.4-102.4c56.5.1 102.3 45.9 102.4 102.4 0 56.6-45.8 102.4-102.4 102.4zm115.2-57.6h-9.1c5.8-13.8 9.1-28.9 9.1-44.8 0-15.8-3.2-30.9-9-44.6h69.9c19.3 0 35 15.7 35 35v124.8h-89.6v-64c.1-3.5-2.8-6.4-6.3-6.4zm108.8 115.2h-121.6v-32h12.8 102.4 6.4z" fill="#ffffff" data-original="#000000" style="" class=""/><path d="m223.3 247.5c-2.7-1.7-4.9-4.1-6.3-6.9-1.2-2.6-1.8-5.5-1.8-8.4-.2-3.1-2.5-5.6-5.6-6l-39.4-5.1c-.1 0-.2 0-.3 0-3.5-.3-6.6 2.4-6.9 5.9-2.7 28.6 11.8 56 37 69.8 1 .6 2.1.9 3.2.9.7 0 1.4-.1 2-.3 1.7-.6 3.2-1.9 3.9-3.6l16.5-38.4c1.3-2.9.3-6.2-2.3-7.9zm-23 34.2c-15.4-10.8-24.6-28.3-24.8-47.1l27.3 3.5c.4 2.9 1.3 5.7 2.7 8.3 1.6 3.1 3.7 6 6.3 8.4z" fill="#ffffff" data-original="#000000" style="" class=""/><path d="m323.4 226.9c0-.2 0-.3-.1-.5-.5-3.5-3.8-5.9-7.3-5.4l-40.2 6.2c-3 .5-5.2 2.9-5.4 6-.1 3.1-.8 6.2-2.3 8.9-1.3 2.6-3.3 4.9-5.8 6.4-2.6 1.7-3.6 5.2-2.3 8l17.3 37.3c.8 1.6 2.2 2.9 3.9 3.4.6.2 1.3.3 1.9.3 1.1 0 2.3-.3 3.3-.9 25.2-13.7 39.7-41.1 37-69.7zm-37.5 54.9-12.1-26c2.4-2.2 4.3-4.8 5.7-7.7 1.5-2.8 2.5-5.8 3.1-8.9l28.2-4.4c-.2 18.8-9.5 36.3-24.9 47z" fill="#ffffff" data-original="#000000" style="" class=""/><path d="m226.7 197.2c1.9 2.3 5.1 3 7.8 1.7 2.8-1.5 5.8-2.4 9-2.5 2.9.1 5.8 1 8.3 2.5.9.4 1.9.7 2.8.7 2 0 3.9-1 5.1-2.6l23.7-31.9c.1-.1.2-.3.3-.4 1.9-3 .9-6.9-2.1-8.8-24-15.8-55.1-15.8-79.1 0-.2.1-.4.3-.6.5-2.8 2.2-3.2 6.2-1 9zm42.2-33.9-16.3 22c-6.1-2.2-12.8-2.1-18.9.1l-17.9-22.2c16.6-8.7 36.5-8.6 53.1.1z" fill="#ffffff" data-original="#000000" style="" class=""/><path d="m243.2 206.9c-10.6 0-19.2 8.6-19.2 19.2s8.6 19.2 19.2 19.2h.4c10.5-.1 18.9-8.7 18.8-19.2 0-10.6-8.6-19.2-19.2-19.2zm0 25.6c-3.5 0-6.4-2.9-6.4-6.4s2.9-6.4 6.4-6.4h.3c3.5.1 6.2 2.9 6.1 6.4 0 3.6-2.9 6.4-6.4 6.4z" fill="#ffffff" data-original="#000000" style="" class=""/></g></g></svg>
