<?xml version="1.0"?>
<svg xmlns="http://www.w3.org/2000/svg" xmlns:xlink="http://www.w3.org/1999/xlink" xmlns:svgjs="http://svgjs.com/svgjs" version="1.1" width="512" height="512" x="0" y="0" viewBox="0 0 512 512" style="enable-background:new 0 0 512 512" xml:space="preserve" class=""><g><g xmlns="http://www.w3.org/2000/svg" id="Outline"><path d="M447.927,274.16l-39.563-5.63L384,258.618V239.956A79.509,79.509,0,0,0,415.6,184h.4a32,32,0,0,0,8.712-62.785A31.856,31.856,0,0,0,424,102.606V72a56,56,0,0,0-56-56H304a56,56,0,0,0-56,56v30.606a31.856,31.856,0,0,0-.712,18.609A32,32,0,0,0,256,184h.4A79.512,79.512,0,0,0,288,239.961v19l-24.8,11.9-42.983,9.16a56.472,56.472,0,0,0-43.889,48.861A96.831,96.831,0,0,0,160,316.937V195.074A95.757,95.757,0,0,0,203.283,82.392,8,8,0,0,0,190.045,79.2l-51.64,51.24a11.6,11.6,0,0,1-8.165,3.319,11.337,11.337,0,0,1-7.943-3.337L93.577,101.7A11.338,11.338,0,0,1,90.24,93.76a11.576,11.576,0,0,1,3.279-8.125l51.28-51.68a8,8,0,0,0-3.195-13.24A95.944,95.944,0,0,0,64,195.069V316.926A95.757,95.757,0,0,0,20.717,429.608,8,8,0,0,0,33.955,432.8l51.64-51.24a11.6,11.6,0,0,1,8.165-3.319,11.337,11.337,0,0,1,7.943,3.337l28.72,28.719a11.338,11.338,0,0,1,3.337,7.944,11.576,11.576,0,0,1-3.279,8.125L79.2,478.045a8,8,0,0,0,3.2,13.24c33.137,10.825,70.861,1.908,95.845-22.107A40.063,40.063,0,0,0,216,496h24c.555,0,88-18.393,88-18.393V496h16V477.649l86.352,18.18A8.074,8.074,0,0,0,432,496h24a40.045,40.045,0,0,0,40-40V329.6A56.386,56.386,0,0,0,447.927,274.16ZM336,360.186,324.481,328h23Zm-32-110.9a79.6,79.6,0,0,0,64,0v13.5L352.652,312h-33.3L304,262.781Zm62.1,73.34,14.948-47.934,16.8,6.834-4.775,57.3-26.928-15.387.256-.706ZM368.88,125.37a199.584,199.584,0,0,0-65.76,0l-21.94,3.656A16.277,16.277,0,0,1,262.275,112h147.45a16.277,16.277,0,0,1-18.905,17.026ZM360,96H312V80h48Zm72,56a16.035,16.035,0,0,1-16,16V136.1c.032-.032.066-.061.1-.092A16.015,16.015,0,0,1,432,152ZM264,72a40,40,0,0,1,40-40h64a40,40,0,0,1,40,40V96H376V72a8,8,0,0,0-8-8H304a8,8,0,0,0-8,8V96H264Zm-19.3,91.3A15.983,15.983,0,0,1,255.92,136l.08.082V168A16.108,16.108,0,0,1,244.7,163.3ZM272,176V144.617a32.557,32.557,0,0,0,11.811.192l4.891-.816a12,12,0,1,0,20.713-3.413,183.523,183.523,0,0,1,53.17,0,12.006,12.006,0,1,0,20.713,3.413l4.891.816c3.436.691,9.742.23,11.811-.188V176a64,64,0,0,1-128,0Zm19.117,99.216,14.772,47.367-.3.108.272.748L278.93,338.826,274.3,283.285Zm-67.53,20.448,35.067-7.473,5.373,64.474a8,8,0,0,0,4.248,6.415c1.167.614,6.466.568,7.694-.134l35.385-20.221L328,385.384v18.284l-46.065-3.543L248,385.582V352H232v26.725l-4.849-2.078A8,8,0,0,0,224,376H192V334.8A40.314,40.314,0,0,1,223.587,295.664ZM121.929,479.417a80.871,80.871,0,0,1-21.316-.235l41.266-41.588a27.522,27.522,0,0,0,7.881-19.354,27.082,27.082,0,0,0-8.023-19.257l-28.72-28.72A27.079,27.079,0,0,0,93.76,362.24a27.555,27.555,0,0,0-19.4,7.921L32.819,411.386A79.86,79.86,0,0,1,75.642,328.8,8,8,0,0,0,80,321.68V190.32a8,8,0,0,0-4.354-7.121,80.208,80.208,0,0,1-43.5-76.309c2.311-37.65,32.392-69.6,69.925-74.307a80.914,80.914,0,0,1,21.316.235L82.121,74.406A27.522,27.522,0,0,0,74.24,93.76a27.082,27.082,0,0,0,8.023,19.257l28.72,28.72a27.079,27.079,0,0,0,19.257,8.023,27.555,27.555,0,0,0,19.395-7.921l41.546-41.225A79.86,79.86,0,0,1,148.358,183.2,8,8,0,0,0,144,190.32V321.68a8,8,0,0,0,4.352,7.12A81,81,0,0,1,176,352.125V447.6A80.235,80.235,0,0,1,121.929,479.417ZM239.165,480H216a24.027,24.027,0,0,1-24-24v-8h28.687l13.656,13.657A8,8,0,0,0,240,464h39.167l17.932,3.775ZM480,456a24.027,24.027,0,0,1-24,24H432.833L281.648,448.171c-.542-.113-38.335-.171-38.335-.171l-13.656-13.657A8,8,0,0,0,224,432H192V392h30.357s56.155,23.909,57.03,23.977L480,431.408Zm0-40.639-71.938-5.534L449.647,392H480ZM480,376H448c-1.087,0-8,2.732-8,2.732V352H424v24H360v16h49.052l-18.986,8.125L344,403.684v-18.3l16.646-46.66,35.385,20.221a8,8,0,0,0,11.942-6.281l5.6-67.232L445.646,290A40.292,40.292,0,0,1,480,329.6Z" fill="#ffffff" data-original="#000000" style="" class=""/><rect x="296" y="368" width="16" height="16" fill="#ffffff" data-original="#000000" style="" class=""/><path d="M362.319,195.1l-4.638-15.313A99.062,99.062,0,0,1,328.934,184H312v16h16.934A115.032,115.032,0,0,0,362.319,195.1Z" fill="#ffffff" data-original="#000000" style="" class=""/><rect x="104" y="184" width="16" height="144" fill="#ffffff" data-original="#000000" style="" class=""/></g></g></svg>
