<?xml version="1.0"?>
<svg xmlns="http://www.w3.org/2000/svg" xmlns:xlink="http://www.w3.org/1999/xlink" xmlns:svgjs="http://svgjs.com/svgjs" version="1.1" width="512" height="512" x="0" y="0" viewBox="0 0 64 64" style="enable-background:new 0 0 512 512" xml:space="preserve" class=""><g><g xmlns="http://www.w3.org/2000/svg" id="outline"><path d="m51 62a3 3 0 0 0 3-3v-54a3 3 0 0 0 -3-3h-38a3 3 0 0 0 -3 3v54a3 3 0 0 0 3 3zm-25-58h12v2h-12zm-14 55v-54a1 1 0 0 1 1-1h11v3a1 1 0 0 0 1 1h14a1 1 0 0 0 1-1v-3h11a1 1 0 0 1 1 1v54a1 1 0 0 1 -1 1h-38a1 1 0 0 1 -1-1z" fill="#ffffff" data-original="#000000" style="" class=""/><path d="m15 40h34a1 1 0 0 0 1-1v-26a1 1 0 0 0 -1-1h-34a1 1 0 0 0 -1 1v26a1 1 0 0 0 1 1zm1-26h32v18h-15.5l-5.7-7.6-1.6 1.2 4.8 6.4h-14zm0 20h32v4h-32z" fill="#ffffff" data-original="#000000" style="" class=""/><path d="m24.293 24.707 1.414-1.414-1.971-1.972a12.058 12.058 0 0 1 2.179-1.646l1.253 1.88 1.664-1.11-1.1-1.647a11.874 11.874 0 0 1 3.268-.747v1.949h2v-1.949a11.874 11.874 0 0 1 3.266.747l-1.1 1.647 1.664 1.11 1.253-1.88a12.058 12.058 0 0 1 2.179 1.646l-1.971 1.972 1.414 1.414 1.886-1.886a11.954 11.954 0 0 1 1.5 2.624l-2.338.585.484 1.94 2.455-.613a11.93 11.93 0 0 1 .308 2.643h2a14 14 0 0 0 -28 0h2a11.93 11.93 0 0 1 .3-2.643l2.455.613.484-1.94-2.339-.585a11.954 11.954 0 0 1 1.5-2.624z" fill="#ffffff" data-original="#000000" style="" class=""/><path d="m20 9a3 3 0 1 0 -3 3 3 3 0 0 0 3-3zm-3 1a1 1 0 1 1 1-1 1 1 0 0 1 -1 1z" fill="#ffffff" data-original="#000000" style="" class=""/><path d="m50 9a3 3 0 1 0 -3 3 3 3 0 0 0 3-3zm-3 1a1 1 0 1 1 1-1 1 1 0 0 1 -1 1z" fill="#ffffff" data-original="#000000" style="" class=""/><path d="m17 58a3 3 0 1 0 -3-3 3 3 0 0 0 3 3zm0-4a1 1 0 1 1 -1 1 1 1 0 0 1 1-1z" fill="#ffffff" data-original="#000000" style="" class=""/><path d="m47 52a3 3 0 1 0 3 3 3 3 0 0 0 -3-3zm0 4a1 1 0 1 1 1-1 1 1 0 0 1 -1 1z" fill="#ffffff" data-original="#000000" style="" class=""/><path d="m20 42a4 4 0 1 0 4 4 4 4 0 0 0 -4-4zm0 6a2 2 0 1 1 2-2 2 2 0 0 1 -2 2z" fill="#ffffff" data-original="#000000" style="" class=""/><path d="m28 42a4 4 0 1 0 4 4 4 4 0 0 0 -4-4zm0 6a2 2 0 1 1 2-2 2 2 0 0 1 -2 2z" fill="#ffffff" data-original="#000000" style="" class=""/><path d="m36 42a4 4 0 1 0 4 4 4 4 0 0 0 -4-4zm0 6a2 2 0 1 1 2-2 2 2 0 0 1 -2 2z" fill="#ffffff" data-original="#000000" style="" class=""/><path d="m44 50a4 4 0 1 0 -4-4 4 4 0 0 0 4 4zm0-6a2 2 0 1 1 -2 2 2 2 0 0 1 2-2z" fill="#ffffff" data-original="#000000" style="" class=""/><path d="m22 54h2v2h-2z" fill="#ffffff" data-original="#000000" style="" class=""/><path d="m26 54h2v2h-2z" fill="#ffffff" data-original="#000000" style="" class=""/><path d="m30 54h4v2h-4z" fill="#ffffff" data-original="#000000" style="" class=""/><path d="m36 54h2v2h-2z" fill="#ffffff" data-original="#000000" style="" class=""/><path d="m40 54h2v2h-2z" fill="#ffffff" data-original="#000000" style="" class=""/></g></g></svg>
